<svg id="icons" xmlns="http://www.w3.org/2000/svg" viewBox="0 0 64 64"><title>car</title><g id="car"><path d="M61,11.83v6.34a.83.83,0,0,1-.83.83H57.83a.83.83,0,0,1-.83-.83V11.83a.83.83,0,0,1,.83-.83h2.34A.83.83,0,0,1,61,11.83Z" fill="#fff"/><path d="M7,15v3.17a.83.83,0,0,1-.83.83H3.83A.83.83,0,0,1,3,18.17V11.83A.83.83,0,0,1,3.83,11H6.17a.83.83,0,0,1,.83.83Z" fill="#fff"/><path d="M55,52v4a3,3,0,0,1-3,3H48a3,3,0,0,1-3-3V52Z" fill="#737373"/><path d="M18,52v4a3,3,0,0,1-3,3H11a3,3,0,0,1-3-3V52Z" fill="#737373"/><path d="M59,46a2,2,0,0,1,2,2v2a2,2,0,0,1-2,2H5a2,2,0,0,1-2-2V48a2,2,0,0,1,2-2Z" fill="#fc0"/><rect x="45" y="35" width="8" height="5" fill="#fff"/><rect x="11" y="35" width="8" height="5" fill="#fff"/><path d="M59,36.3V46H5V36.3A14.05,14.05,0,0,1,6.48,30L8,27H56l1.52,3A14.05,14.05,0,0,1,59,36.3ZM53,40V35H45v5ZM19,40V35H11v5Z" fill="#ff2c61"/><path d="M34,27H8L13.08,8.37A4.57,4.57,0,0,1,17.5,5h29a4.57,4.57,0,0,1,4.42,3.37L56,27Z" fill="#32c2bf"/><line x1="11" y1="16" x2="7" y2="16" fill="none" stroke="#000" stroke-linecap="round" stroke-miterlimit="10" stroke-width="2"/><path d="M6.17,20H3.83A.83.83,0,0,1,3,19.17V12.83A.83.83,0,0,1,3.83,12H6.17a.83.83,0,0,1,.83.83v6.34A.83.83,0,0,1,6.17,20Z" fill="none" stroke="#000" stroke-linecap="round" stroke-miterlimit="10" stroke-width="2"/><path d="M18,52v4a3,3,0,0,1-3,3H11a3,3,0,0,1-3-3V52" fill="none" stroke="#000" stroke-miterlimit="10" stroke-width="2"/><path d="M55,52v4a3,3,0,0,1-3,3H48a3,3,0,0,1-3-3V52" fill="none" stroke="#000" stroke-miterlimit="10" stroke-width="2"/><path d="M59,46a2,2,0,0,1,2,2v2a2,2,0,0,1-2,2H5a2,2,0,0,1-2-2V48a2,2,0,0,1,2-2" fill="none" stroke="#000" stroke-miterlimit="10" stroke-width="2"/><path d="M56,27l1.52,3A14.05,14.05,0,0,1,59,36.3V46H5V36.3A14.05,14.05,0,0,1,6.48,30L8,27" fill="none" stroke="#000" stroke-miterlimit="10" stroke-width="2"/><path d="M56,27H8L13.08,8.37A4.57,4.57,0,0,1,17.5,5h29a4.57,4.57,0,0,1,4.42,3.37Z" fill="none" stroke="#000" stroke-miterlimit="10" stroke-width="2"/><rect x="11" y="35" width="8" height="5" fill="none" stroke="#000" stroke-linecap="round" stroke-linejoin="round" stroke-width="2"/><rect x="45" y="35" width="8" height="5" fill="none" stroke="#000" stroke-linecap="round" stroke-linejoin="round" stroke-width="2"/><line x1="28" y1="35" x2="36" y2="35" fill="none" stroke="#000" stroke-linecap="round" stroke-linejoin="round" stroke-width="2"/><line x1="25" y1="40" x2="39" y2="40" fill="none" stroke="#000" stroke-linecap="round" stroke-linejoin="round" stroke-width="2"/><line x1="20" y1="27" x2="29" y2="18" fill="none" stroke="#000" stroke-linecap="round" stroke-miterlimit="10" stroke-width="2"/><line x1="34" y1="27" x2="43" y2="18" fill="none" stroke="#000" stroke-linecap="round" stroke-miterlimit="10" stroke-width="2"/><line x1="53" y1="16" x2="57" y2="16" fill="none" stroke="#000" stroke-linecap="round" stroke-miterlimit="10" stroke-width="2"/><path d="M57.83,20h2.34a.83.83,0,0,0,.83-.83V12.83a.83.83,0,0,0-.83-.83H57.83a.83.83,0,0,0-.83.83v6.34A.83.83,0,0,0,57.83,20Z" fill="none" stroke="#000" stroke-linecap="round" stroke-miterlimit="10" stroke-width="2"/><line x1="18.5" y1="17" x2="26" y2="9" fill="none" stroke="#43f0ec" stroke-linecap="round" stroke-linejoin="round" stroke-width="2"/><line x1="17" y1="11.67" x2="19.5" y2="9" fill="none" stroke="#43f0ec" stroke-linecap="round" stroke-linejoin="round" stroke-width="2"/></g></svg>